<svg width="24" height="25" viewBox="0 0 24 25" fill="none" xmlns="http://www.w3.org/2000/svg">
<path fill-rule="evenodd" clip-rule="evenodd" d="M15.4232 20.7326H19.2197V11.7617L12.0197 4.4126L4.81973 11.7617V20.7326H8.61964V17.7121C8.61964 15.7972 10.1437 14.2416 12.0197 14.2416C13.8958 14.2416 15.4232 15.7972 15.4232 17.7121V20.7326ZM14.862 21.9369C14.2346 21.9369 13.7254 21.4277 13.7254 20.8003V17.0388C13.7254 15.2635 10.3171 15.2574 10.3171 17.0388V20.8003C10.3171 21.4277 9.80792 21.9369 9.1805 21.9369H4.49674C3.86932 21.9369 3.36011 21.4277 3.36011 20.8003V11.395C3.36011 11.095 3.48135 10.804 3.69352 10.5918L11.2135 3.06884C11.659 2.62631 12.3774 2.62631 12.823 3.06884L20.3459 10.5918C20.5611 10.804 20.6794 11.095 20.6794 11.395V20.8003C20.6794 21.4277 20.1701 21.9369 19.5427 21.9369H14.862Z" fill="#666666"/>
<mask id="mask0_2297_4476" style="mask-type:luminance" maskUnits="userSpaceOnUse" x="3" y="2" width="18" height="20">
<path fill-rule="evenodd" clip-rule="evenodd" d="M15.4232 20.7326H19.2197V11.7617L12.0197 4.4126L4.81973 11.7617V20.7326H8.61964V17.7121C8.61964 15.7972 10.1437 14.2416 12.0197 14.2416C13.8958 14.2416 15.4232 15.7972 15.4232 17.7121V20.7326ZM14.862 21.9369C14.2346 21.9369 13.7254 21.4277 13.7254 20.8003V17.0388C13.7254 15.2635 10.3171 15.2574 10.3171 17.0388V20.8003C10.3171 21.4277 9.80792 21.9369 9.1805 21.9369H4.49674C3.86932 21.9369 3.36011 21.4277 3.36011 20.8003V11.395C3.36011 11.095 3.48135 10.804 3.69352 10.5918L11.2135 3.06884C11.659 2.62631 12.3774 2.62631 12.823 3.06884L20.3459 10.5918C20.5611 10.804 20.6794 11.095 20.6794 11.395V20.8003C20.6794 21.4277 20.1701 21.9369 19.5427 21.9369H14.862Z" fill="white"/>
</mask>
<g mask="url(#mask0_2297_4476)">
<rect y="0.336914" width="24" height="24" fill="#666666"/>
</g>
</svg>
