<?xml version="1.0" encoding="UTF-8"?><svg id="Layer_1" xmlns="http://www.w3.org/2000/svg" xmlns:xlink="http://www.w3.org/1999/xlink" viewBox="0 0 800 360"><defs><style>.cls-1{fill:url(#linear-gradient);}.cls-1,.cls-2,.cls-3,.cls-4,.cls-5,.cls-6{stroke-width:0px;}.cls-2{fill:url(#linear-gradient-4);}.cls-3{fill:url(#linear-gradient-2);}.cls-4{fill:url(#linear-gradient-3);}.cls-5{fill:url(#linear-gradient-5);}.cls-6{fill:#6d5a4c;}</style><linearGradient id="linear-gradient" x1="711.27" y1="-120.28" x2="99.69" y2="88.09" gradientUnits="userSpaceOnUse"><stop offset="0" stop-color="#ffcb05"/><stop offset=".22" stop-color="#ed1b2f"/><stop offset=".85" stop-color="#822a85"/></linearGradient><linearGradient id="linear-gradient-2" x1="734.12" y1="-53.22" x2="122.54" y2="155.15" xlink:href="#linear-gradient"/><linearGradient id="linear-gradient-3" x1="743.74" y1="-24.98" x2="132.17" y2="183.4" xlink:href="#linear-gradient"/><linearGradient id="linear-gradient-4" x1="740.88" y1="-33.39" x2="129.3" y2="174.99" xlink:href="#linear-gradient"/><linearGradient id="linear-gradient-5" x1="773.44" y1="62.18" x2="161.86" y2="270.56" xlink:href="#linear-gradient"/></defs><rect class="cls-1" x="113.14" y="51.24" width="114.95" height="25.38"/><rect class="cls-3" x="155.65" y="82.4" width="29.51" height="112.89"/><path class="cls-4" d="m352.95,138.53c4.13-3.16,7.67-6.74,10.63-10.73,2.96-3.99,5.3-8.32,7.02-13,1.72-4.68,2.58-9.56,2.58-14.65,0-6.6-1.34-12.86-4.02-18.78-2.68-5.91-6.33-11.11-10.94-15.58-4.61-4.47-10.01-7.98-16.2-10.53-6.19-2.54-12.8-3.82-19.81-3.82h-80.69v143.85h29.51v-118.46h51.18c2.89,0,5.68.62,8.36,1.86,2.68,1.24,5.02,2.92,7.02,5.06,1.99,2.13,3.58,4.61,4.75,7.43,1.17,2.82,1.75,5.81,1.75,8.98s-.59,6.43-1.75,9.39c-1.17,2.96-2.75,5.5-4.75,7.64-2,2.13-4.33,3.82-7.02,5.06-2.68,1.24-5.47,1.86-8.36,1.86h-34.05l52.83,71.2h34.26l-35.7-49.12c4.81-1.92,9.29-4.47,13.41-7.64Z"/><path class="cls-2" d="m528.26,73.94c2.13-1.79,3.2-4.06,3.2-6.81v-15.89h-143.64v25.38h132.49c3.16,0,5.81-.89,7.95-2.68Z"/><path class="cls-5" d="m629.9,123.26l56.96-72.03h-35.29l-39.21,49.74-38.8-49.74h-35.5l56.55,72.03-2.87,2.47c-22.46,15.19-41.45,40.13-70.01,44.27-.52-.06-1.06-.09-1.62-.09h-88.12c-4.27,0-7.81-1.62-10.63-4.85-2.82-3.23-4.23-7.26-4.23-12.07v-17.34l99.06.21c3.3,0,6.05-.86,8.26-2.58,2.2-1.72,3.3-3.89,3.3-6.5v-15.68l-110.62-.21-.21-20.84h-29.31l.21,62.95c0,5.78,1.16,11.22,3.48,16.3,2.32,5.09,5.46,9.56,9.43,13.41,3.96,3.85,8.65,6.91,14.06,9.18.09.04.19.07.28.11-5.21,2.11-8.89,7.21-8.89,13.18,0,7.86,6.37,14.23,14.23,14.23s14.23-6.37,14.23-14.23c0-3.86-1.54-7.36-4.04-9.92.46.01.92.03,1.39.03h63.62c-2.48,2.56-4.01,6.04-4.01,9.89,0,7.86,6.37,14.23,14.23,14.23s14.23-6.37,14.23-14.23c0-3.85-1.53-7.33-4.01-9.89h10.75l4.41.23c10.34-1.38,30.03-9.65,42.3-18.5,11.32-8.17,21.86-17.29,31.59-27.26l7.06-4.01,39.21,49.53h35.5c-9.36-12.11-18.82-24.11-28.38-36.01-9.56-11.9-19.09-23.9-28.58-36.01Z"/><path class="cls-6" d="m487.31,286.55l-6.19-14.32h-29.3l-6.19,14.32h-8.55l25.8-57.95h7.08l25.88,57.95h-8.54Zm-32.64-21h23.6l-11.8-27.59-11.8,27.59Z"/><path class="cls-6" d="m540.12,226.65v59.9h-8.14v-7c-1.19,2.44-2.97,4.31-5.33,5.62-2.36,1.3-5.12,1.95-8.26,1.95-3.53,0-6.67-.9-9.44-2.69-2.77-1.79-4.92-4.3-6.47-7.53-1.55-3.23-2.32-6.96-2.32-11.19s.76-7.95,2.28-11.15c1.52-3.2,3.65-5.67,6.39-7.41,2.74-1.74,5.93-2.6,9.56-2.6,3.09,0,5.82.65,8.18,1.95,2.36,1.3,4.14,3.15,5.33,5.53v-25.39h8.22Zm-11.19,50.09c2.03-2.58,3.05-6.2,3.05-10.87s-1.02-8.29-3.05-10.86c-2.04-2.58-4.9-3.87-8.59-3.87s-6.66,1.28-8.75,3.83c-2.09,2.55-3.13,6.13-3.13,10.74s1.04,8.32,3.13,10.95c2.09,2.63,4.98,3.95,8.67,3.95s6.63-1.29,8.67-3.87Z"/><path class="cls-6" d="m612.64,260.99v25.56h-8.22v-25.15c0-3.53-.61-6.1-1.83-7.73-1.22-1.63-3.19-2.44-5.9-2.44-3.15,0-5.63,1.09-7.45,3.26-1.82,2.17-2.73,5.13-2.73,8.87v23.2h-8.22v-25.15c0-3.53-.61-6.1-1.83-7.73-1.22-1.63-3.19-2.44-5.9-2.44-3.15,0-5.64,1.09-7.49,3.26-1.85,2.17-2.77,5.13-2.77,8.87v23.2h-8.14v-29.46c0-4.29-.22-8.14-.65-11.56h7.65l.73,6.84c1.19-2.5,2.9-4.42,5.13-5.78,2.22-1.36,4.83-2.03,7.81-2.03,6.35,0,10.5,2.63,12.45,7.89,1.25-2.44,3.08-4.37,5.49-5.78,2.41-1.41,5.14-2.12,8.18-2.12,9.12,0,13.67,5.48,13.67,16.44Z"/><path class="cls-6" d="m623.71,227.62h9.52v8.63h-9.52v-8.63Zm.73,58.92v-41.02h8.14v41.02h-8.14Z"/><path class="cls-6" d="m681.17,260.99v25.56h-8.22v-25.07c0-3.58-.69-6.19-2.08-7.81-1.38-1.63-3.59-2.44-6.63-2.44-3.47,0-6.25,1.09-8.34,3.26-2.09,2.17-3.13,5.07-3.13,8.71v23.36h-8.14v-29.46c0-4.29-.22-8.14-.65-11.56h7.65l.73,7.08c1.3-2.6,3.19-4.6,5.66-5.98,2.47-1.38,5.28-2.08,8.42-2.08,9.82,0,14.73,5.48,14.73,16.44Z"/></svg>